<?xml version="1.0" encoding="utf-8"?>
<!-- Generator: Adobe Illustrator 28.0.0, SVG Export Plug-In . SVG Version: 6.00 Build 0)  -->
<svg version="1.1" id="Lag_1" xmlns="http://www.w3.org/2000/svg" xmlns:xlink="http://www.w3.org/1999/xlink" x="0px" y="0px"
	 viewBox="0 0 595.28 841.89" style="enable-background:new 0 0 595.28 841.89;" xml:space="preserve">
<style type="text/css">
	.st0{fill:#BCCCB2;}
</style>
<g>
	<g>
		<path class="st0" d="M148.35,431.13c0.58-2.68,1.16-5.36,1.71-7.91c-1.37,0.33-4.55,1.92-4.02-2.94c0.06-0.53-1.35-1.76-1.47-1.69
			c-3.11,1.95-7.17-3.43-10.16,1.43c-0.5,0.81-4.1-0.36-6.27-0.51c-7.29-0.49-14.49-2.62-21.82,0.92
			c-4.06,1.96-8.86,2.55-13.39,3.31c-1.55,0.26-4.58-0.51-4.78-1.33c-0.66-2.71-3.44-5.72,0.3-8.5c4.01-2.97,8.09-5.14,13.32-4.12
			c3.34,0.65,5.97,0.26,5.29-4.37c-0.16-1.08,0.52-2.9,1.38-3.42c4.25-2.54,8.74-4.68,13.06-7.12c2.21-1.25,4.17-2.95,6.38-4.21
			c6.97-3.99,14-7.9,21.03-11.79c3.13-1.73,3.27-4.82,2.29-7.29c-0.45-1.14-3.67-1.21-5.66-1.68c-0.42-0.1-0.92,0.15-1.39,0.24
			c0.07,0.06,0.18,0.18,0.19,0.17c0.53-0.37,1.33-0.66,1.51-1.16c0.18-0.52-0.04-1.52-0.46-1.84c-2.55-1.98-3.86-3.71,0.07-5.7
			c0.32-0.16-0.09-3.43-0.82-3.75c-9.72-4.3-17.24-12.93-28.33-14.49c-0.65-0.09-1.39-0.58-1.92-0.4
			c-6.86,2.33-11.12-3.49-16.69-5.14c-6.25-1.84-10.29-5.88-14.47-10.66c-5.24-6-11.79-10.86-17.81-16.17
			c-0.32-0.28-0.92-0.31-1.39-0.35c-6.37-0.54-12.78-0.77-19.08-1.75c-2.25-0.35-4.22-2.47-6.32-3.79c1.43-1.98,2.51-5.21,4.36-5.73
			c9.36-2.64,18.58-8,28.81-2.84c1.72,0.87,3.97,0.61,5.82,1.29c5.81,2.13,11.44,4.8,17.33,6.63c10.08,3.13,19.85,7.25,30.88,7.01
			c4.78-0.1,9.57,2.97,14.46,4.13c6.42,1.52,12.94,2.59,19.42,3.85c0.17-0.42,0.33-0.85,0.5-1.27c-3.31-1.89-6.72-3.64-9.92-5.71
			c-3.62-2.35-7.09-4.95-10.56-7.53c-0.57-0.42-0.8-1.3-1.19-1.97c0.8,0.01,1.74-0.26,2.36,0.07c2.05,1.07,3.99,2.35,5.96,3.57
			c6.49,4.02,12.89,8.21,19.53,11.97c1.88,1.06,4.4,1.31,4.66-2.52c0.18-2.64,1.81-4.43,5.08-3.71c0.5,0.11,1.98-1.46,1.97-2.25
			c-0.02-3.16-3.05-8.35,4.39-5.54c0.27-0.76,1-1.97,0.75-2.22c-3.24-3.3-6.55-6.54-10.05-9.56c-0.43-0.37-2.36,0.33-3.04,1.05
			c-3.52,3.72-9.66,5.24-13.12,2.81c-0.99-0.69-2.31-2.77-2.13-2.97c1.21-1.32,2.7-2.5,4.3-3.31c0.7-0.35,2,0.62,2.84,0.36
			c1.55-0.47,2.95-1.41,4.42-2.15c-0.73-1.02-1.47-2.03-2.2-3.05c-2.76-3.86-5.55-7.7-8.24-11.61c-0.38-0.55-0.24-1.46-0.35-2.2
			c1.28-0.15,2.87-0.87,3.78-0.37c5.58,3.13,10.97,6.59,16.49,9.84c1.95,1.15,4.3,3.12,6.09,2.78c6.9-1.33,10.14,3.23,14.09,7.25
			c1.36,1.39,3.7,8.54,6,0.19c0.17-0.61,3.02-0.44,4.62-0.72c1.96-0.34,3.91-0.76,5.87-1.15c-0.73-3.04,0.9-6.47-2.62-9.04
			c-5.47-4-10.6-8.5-15.71-12.97c-1.98-1.73-3.49-3.99-5.23-6c-2.78-3.2-4.97-6.67-10.5-6.06c-2.58,0.28-5.1-2.94-5.38-6.55
			c-0.09-1.14-0.99-2.46-1.9-3.27c-8.21-7.26-16.51-14.4-24.74-21.63c-0.97-0.85-2.01-1.99-2.28-3.16
			c-0.26-1.17,0.41-2.54,0.67-3.83c0.73,0.53,1.49,1.03,2.17,1.61c7.85,6.69,15.68,13.4,23.52,20.09c0.37,0.32,0.88,0.76,1.28,0.73
			c6.34-0.54,7.06,5.7,10.45,8.69c3.81,3.36,7.32,7.06,11,10.57c0.57,0.54,1.59,0.73,1.96,1.35c4.19,6.94,11.68,9.16,18.12,12.93
			c2.76,1.62,5.42,3.46,7.93,5.45c3.51,2.8,18.36,1.76,21.01-1.83c0.64-0.87,0.14-2.51,0.39-3.75c0.52-2.55,1.29-5.05,1.73-7.61
			c0.1-0.55-0.76-1.83-1.16-1.82c-9.49,0.2-18.98,0.6-28.47,0.76c-1.95,0.03-5.44-0.4-5.62-1.2c-0.76-3.4,0.15-6.87,4.01-8.06
			c2.48-0.76,5.23-0.9,7.85-0.92c3.82-0.02,7.65,0.39,11.47,0.46c1.11,0.02,2.23-0.49,3.34-0.76c-0.62-0.91-1.23-1.84-1.87-2.74
			c-2.46-3.5-5.09-6.9-7.29-10.56c-0.59-0.98,0.14-2.74,0.27-4.14c1.9,0.53,4.53,0.45,5.58,1.7c3.72,4.43,6.82,9.37,10.31,14.01
			c1.44,1.92,8.29,0.76,10.03-1.29c0.42-0.5,1.85-0.25,2.8-0.18c5.89,0.45,11.76,1.19,17.65,1.35c3.45,0.1,7.01-0.52,5.06-5.76
			c-0.33-0.89,0.44-2.18,0.7-3.29c0.55,0.64,1.04,1.73,1.67,1.81c1.08,0.14,2.25-0.34,3.38-0.56c-0.9-3.15,4.76-5.24,1.51-8.9
			c-0.1-0.11,1.35-2.23,2.34-2.51c1.3-0.37,2.88,0.04,4.29,0.35c0.36,0.08,0.51,1.07,0.75,1.64c0.17-0.7,0.29-1.42,0.53-2.1
			c0.49-1.39,1.01-2.76,1.59-4.11c0.4-0.95,0.91-1.85,1.37-2.77c-1.38-0.25-2.85-0.94-4.11-0.67c-2.65,0.56-5.16,1.75-7.8,2.39
			c-1.03,0.25-2.24-0.25-3.37-0.42c0.23-0.87,0.29-1.83,0.71-2.6c1.31-2.41,3.28-4.55-1.95-4.71c-1.53-0.05-2.97-3.27-4.45-5.04
			c1.66-1.1,3.2-2.48,5.01-3.2c1.33-0.53,3.01-0.19,4.54-0.24c-1.18-2.1-2.21-4.3-3.57-6.27c-1.14-1.65-2.98-2.87-3.89-4.6
			c-0.56-1.06,0.03-2.73,0.11-4.13c1.42,0.13,3.12-0.18,4.21,0.5c2.1,1.3,2.98,1.63,2.58-1.4c-0.05-0.36,1.08-1.24,1.65-1.23
			c0.88,0.01,2.51,0.59,2.51,0.93c0.01,2.6,0.7,6.23-0.71,7.61c-3.65,3.57,1.78,3.27,1.59,5.09c0.64-0.76,1.42-1.44,1.87-2.3
			c0.4-0.77,0.43-1.72,0.63-2.6c0.34,0.7,0.69,2.02,1.03,2.02c6.18,0.01,2.83,5.57,4.76,7.99c0.81,1.01,2.08,2.76,2.72,2.59
			c2.04-0.54,5.2,2.44,6.24-1.77c0.1-0.39,1.69-0.42,2.6-0.61c0.28,3.81,2.6,1.17,3.04,0.59c1.31-1.71,2.14-3.8,3.16-5.73
			c0,0-0.12,0.09-0.12,0.09c1.41,0.45,3.46,0.46,4.1,1.42c2.41,3.64,4.36,7.58,6.5,11.4c0.26,0.46,0.82,1.23,0.98,1.17
			c1.91-0.74,3.93-1.38,5.59-2.52c1.31-0.89,2.17-2.45,3.16-3.62c0.07,0.22,0.46,1.37,0.78,2.54c0.13,0.48,0.04,1.4,0.17,1.43
			c7.71,1.43,0.89,5.88,1.82,8.7c0.34,1.04,0.57,2.13,1.65,3.23c0.11-0.64,0.12-1.32,0.36-1.9c0.42-1.02,0.99-1.97,1.5-2.96
			c0.97,0.73,2.48,1.27,2.8,2.21c1.33,3.92,2.25,7.99,3.43,11.97c1.25,4.23,5.26,5.58,8.63,2.85c3.53-2.87,7-5.82,10.28-8.96
			c0.79-0.76,0.85-2.38,1.06-3.63c0.26-1.56-1.38-4.82,2.63-2.65c0.11,0.06,0.72-0.4,0.77-0.68c0.73-4.44,3.83-5.31,7.66-5.43
			c0.52-0.02,1.46-1.66,1.4-2.5c-0.31-4.26,1.25-6.97,5.71-7.31c2.96-0.23,6.77-3.73,8.51,1.91c0.09,0.28,1.27,0.43,1.89,0.31
			c4.38-0.83,5.77,3.63,8.92,4.97c0.58,0.25,1.09,0.67,1.64,1.02c0.11-2.27,1.07-3.45,3.51-2.73c-0.06-1.31-0.19-2.62-0.16-3.93
			c0.02-1.1,0.23-2.19,0.35-3.28c0.55,0.59,1.01,1.47,1.69,1.69c0.5,0.17,1.65-0.32,1.89-0.81c2.78-5.78,5.52-11.59,8.11-17.46
			c2.29-5.21,5.53-10.35,6.25-15.81c0.78-5.91,3.14-9.98,7.38-13.62c0.77-0.66,0.51-2.48,0.81-3.74c0.26-1.12,0.7-3.17,0.94-3.15
			c1.61,0.12,3.19,0.68,4.78,1.1c-1.98,2.61,1.74,3.58,1.62,5.58c-0.28,4.76-0.66,9.52-1.12,14.27c-0.07,0.68-0.64,1.57-1.24,1.89
			c-5.19,2.77-8.54,6.47-7.62,12.93c0.14,0.98,0.16,4.12-3.01,2.17c-0.3-0.18-4.07,4.1-3.82,4.41c1.93,2.44,0.3,2.8-1.36,3.92
			c-1.35,0.9-2.29,2.57-3.13,4.05c-1.93,3.42-3.75,6.9-5.45,10.43c-0.32,0.67,0.15,1.73,0.25,2.61c0.63-0.51,1.25-1.02,1.89-1.52
			c0.75-0.59,1.52-1.16,2.28-1.74c0,1.1,0.33,2.35-0.07,3.28c-0.65,1.5-1.92,2.71-2.69,4.17c-0.82,1.57-2.05,3.35-1.88,4.91
			c0.5,4.63,1.64,9.19,2.43,13.8c0.36,2.08,0.66,4.21,0.67,6.32c0.01,3.27-1.02,6.71,2.45,9.07c0.43,0.29,0.42,1.21,0.62,1.83
			c0.48,1.52,0.75,4.21,1.47,4.33c2.47,0.43,5.21,0.37,7.63-0.29c1.96-0.54,3.73-3.76,4.96,0.67c0.12,0.42,1.04,0.9,1.56,0.87
			c4.57-0.29,7.82,1.1,8.66,6.12c0.06,0.36,1.41,0.71,2.16,0.72c4.91,0.02,9.81,0.02,14.71-0.18c0.95-0.04,2.65-0.93,2.69-1.51
			c0.49-7.28,8.15-4.74,11.26-8.36c0.9-1.05,2.3-1.67,3.33-2.63c0.56-0.52,6.04-2.68,6.96-2.82c0.88-0.13,1.67-0.8,2.51-1.24
			c-0.4-0.44-0.81-0.86-1.2-1.31c-0.28-0.33-0.51-0.7-0.77-1.05c0.68-0.31,1.35-0.83,2.06-0.9c6.59-0.66,9.14-3.05,9.85-9.35
			c0.55-4.92,7.39-9.43,12.08-7.85c0.75,0.25,1.63,1.14,1.82,1.9c1.47,5.64-4.1,12.38-9.62,14.62c-5.14,2.09-9.83,5.88-13.97,9.73
			c-4.72,4.39-8.76,9.56-12.81,14.62c-1.51,1.89-2.79,4.33-3.2,6.69c-1.31,7.55-2.01,15.21-3.32,22.77
			c-0.32,1.83-2.09,3.4-3.24,5.06c-0.03,0.04-0.69-0.34-1.04-0.55c-0.84-0.48-1.68-0.98-2.52-1.47c-0.17,1.07-0.2,2.18-0.55,3.18
			c-0.62,1.75-1.02,4.46-2.24,4.94c-4.71,1.84-1.46,2.77-0.01,4.44c1.12,1.3,1.66,3.15,2.28,4.82c0.27,0.71-0.18,2.15,0.15,2.31
			c5.49,2.58,1.24,5.3,0.15,7.92c-0.46,1.12-1.14,2.16-1.72,3.23c1.73,0.67,3.42,1.66,5.22,1.91c1.57,0.22,3.26-0.53,4.9-0.54
			c0.89-0.01,1.78,0.64,2.68,0.99c-0.74,0.54-1.41,1.36-2.24,1.59c-4.94,1.4-9.94,2.61-14.87,4.04c-0.81,0.23-2.09,1.44-1.97,1.85
			c0.69,2.35,3.32,5.12-1.87,5.4c2.02,2.28,3.67,5.23,6.18,6.63c2.13,1.19,6.3-0.09,7.72,0.49c3.85,1.57,7.3,0.95,10.95,0.8
			c1.26-0.05,2.52-0.32,3.78-0.31c1.06,0.01,2.89,0.04,3.04,0.49c0.42,1.3,0.66,3.78,0.08,4.09c-2.74,1.44-1.28,2.93-0.65,4.66
			c1.46,3.98,1.58,8.82,6.99,10.09c0.22,0.05,0.09,1.19,0.29,1.76c0.87,2.51,1.46,2.68,3.79,1.22c5.09-3.19,15.03,0.5,16.88,6.27
			c0.1,0.32,0.14,0.69,0.33,0.94c3.81,4.92,1.61,9.51-0.63,14.18c-0.51,1.07-1.02,2.75-0.54,3.55c1.18,1.98,4.09,4.15-1.36,2.73
			c-0.18-0.05-0.79,0.88-0.93,1.42c-1.79,6.78-6,8.01-12.49,5c-3.87-1.79-8.62-1.76-13-2.23c-0.47-0.05-1.53,1.97-1.68,3.1
			c-0.3,2.36-0.56,4.14-3.73,3.83c-2.41-0.24-4.3,4.23-7.24,0.98c-0.3,0.48-0.84,0.95-0.85,1.44c-0.06,5.34-3.89,4.78-7.39,4.84
			c-1.53,0.02-3.05,0.24-4.58,0.38c0.6,1.59,0.83,3.5,1.88,4.71c2.82,3.26,5.84,6.38,9.04,9.26c2.69,2.42,4.52,5.56,9.26,5.91
			c3.2,0.24,6.05,4.19,9.19,6.29c6.4,4.29,13.35,7.89,19.19,12.82c6.53,5.5,11.99,12.27,18.13,18.27c2.9,2.84,6.28,5.2,9.5,7.71
			c2.41,1.89,4.78,3.9,7.4,5.44c3.71,2.18,6.02,6.43,11.3,6.44c2.81,0,4.09,5.47,2.83,8.32c-0.8,1.81-1.74,4.42-1.01,5.88
			c1.63,3.28,0.13,3.51-2.38,4.19c-1.28,0.35-2.31,1.87-3.29,3c-0.51,0.59-0.67,1.5-0.98,2.26c-1.02-0.43-2.19-0.67-3.05-1.31
			c-2.23-1.67-4.4-3.44-6.45-5.32c-1.18-1.08-2.22-2.37-3.07-3.72c-3.22-5.09-5.98-10.65-13.25-10.89
			c-0.64-0.02-1.13-1.39-1.87-1.83c-2.69-1.59-5.58-2.86-8.16-4.61c-3.9-2.65-7.8-5.36-11.34-8.47c-3.76-3.3-7.07-7.11-10.65-10.63
			c-0.41-0.41-1.35-0.62-1.91-0.46c-0.85,0.24-1.58,0.88-2.37,1.35c-0.05-1.31-0.67-3.25-0.05-3.82c3.8-3.49-1.38-3.99-1.98-5.94
			c-0.12-0.37-2.95,0.52-3.99-0.09c-1.55-0.9-3.64-2.57-3.71-4c-0.31-5.88-5.07-7.06-8.75-7.16c-5.62-0.15-11.27,1.85-16.96,2.34
			c-3.68,0.31-7.46-0.47-11.19-0.71c-0.86-0.05-1.74,0.12-2.61,0.19c0.45,0.58,1,1.1,1.34,1.74c0.73,1.34,2.03,2.81,1.9,4.11
			c-0.44,4.63,1.63,9.28-2.6,13.94c-2.52,2.77-1.75,8.56-2.31,13.01c-0.07,0.58,0.78,1.27,1.18,1.92c0.92,1.51,2.36,2.93,2.64,4.56
			c1.32,7.51,2.23,15.08,3.54,22.59c0.19,1.11,1.6,2.73,2.6,2.85c5.56,0.64,4.46,4.16,3.59,7.62c-0.43,1.72-1.98,4.17-1.35,4.96
			c1.79,2.24,4.18,4.57,6.8,5.46c4.24,1.44,5.71,3.88,6.41,8.12c0.71,4.33,2.84,8.41,4.22,12.64c2.15,6.61,3.23,13.78,6.55,19.72
			c3.21,5.75,0.82,10.15-0.72,14.93c-1.81,5.63-8.11,8.22-12.36,4.89c-2.65-2.08-4.18-5.6-6.19-8.49c-0.35-0.51-0.42-1.33-0.87-1.64
			c-7.08-4.85-7.74-8.87-6.74-17.8c0.64-5.71,0.75-12.28-3.84-17.4c-1.33-1.48-2.6-3.55,0.62-4.87c0.28-0.11,0.18-2.01-0.24-2.81
			c-1.28-2.44-3-4.66-4.15-7.14c-0.51-1.09,0.3-2.77-0.15-3.92c-0.68-1.75-1.93-3.27-2.93-4.89c-0.89,1.22-1.6,2.63-2.7,3.61
			c-1.04,0.93-2.45,1.79-3.77,1.93c-0.78,0.09-1.72-1.27-2.59-1.98c0.89-1.07,1.66-2.28,2.71-3.15c0.87-0.72,2.28-0.84,3.04-1.62
			c0.55-0.56,0.43-1.78,0.6-2.71c-2.78,0.17-7.3-0.61-7.99,0.68c-1.94,3.61-2.18,0.72-2.88-0.28c-0.56-0.8-0.93-1.78-1.21-2.72
			c-0.71-2.39-1.32-4.82-1.97-7.23c-1.86,0.8-3.93,1.32-5.55,2.47c-3.48,2.46-3.99-1.31-3.58-2.27c2.13-4.88-2.8-3.53-4.19-5.2
			c-0.74,1.43-1.48,2.85-2.54,4.88c-1.6-4.69-3.09-9.33-4.79-13.89c-0.38-1.01-1.47-1.75-2.24-2.61c-0.79,0.81-1.58,1.64-2.38,2.44
			c-4.03,4.02-3.6,8.93-3.36,14.09c0.15,3.26,1.42,7.07-1.68,10.09c-0.47,0.46,0.57,2.31,0.68,3.54c0.18,2.09,0.18,4.19,0.22,6.29
			c0.01,0.48-0.37,1.24-0.17,1.42c4.71,4.19,1.3,9.78,2.47,14.58c0.35,1.46,0.08,3.76-0.87,4.73c-4.34,4.45-1.63,8.82-0.62,13.41
			c0.56,2.55,0.89,5.74-0.19,7.9c-1.1,2.2-2.99,3.07-6.43,0.46c-6.24-4.73-5.26-12.01-8.54-17.6c-0.41-0.7-0.4-1.72-0.92-2.27
			c-1.65-1.74-3.46-3.32-5.21-4.97c-0.14,1.91-0.27,3.82-0.44,5.72c-0.23,2.48-0.04,5.14-0.91,7.37c-0.59,1.52-2.68,3.36-4.12,3.37
			c-1.18,0.01-3.39-2.42-3.43-3.82c-0.29-9.11-0.15-18.23-0.06-27.35c0.04-4.09-0.48-4.58-4.18-2.85c-3.31,1.55-5.95,0.13-8.6-1.54
			c-3.28-2.07-5.92-0.73-6.68,3.21c-0.33,1.7-0.8,3.78-1.98,4.82c-5.03,4.48-5.54,10.55-6.36,16.53c-0.75,5.54-1.65,11.1-1.83,16.67
			c-0.09,2.78,1.34,5.59,2.01,8.4c0.6,2.52,0.98,5.11,1.69,7.6c0.52,1.83,1.51,3.51,2.11,5.32c0.49,1.49,3.57,3.1-0.05,4.67
			c-0.28,0.12-0.15,1.39-0.07,2.12c0.59,5.72,1.02,11.47,1.91,17.15c0.38,2.45,1.72,4.76,2.63,7.12c0.41,1.05,1.53,2.63,1.19,3.03
			c-3.87,4.69-1.33,10.25-2.3,15.29c-0.14,0.74-0.2,1.5-0.3,2.24c-0.67-0.62-1.57-1.14-1.94-1.9c-0.33-0.67,0.23-1.78-0.12-2.43
			c-0.99-1.88-1.92-4.11-3.54-5.2c-0.71-0.47-3.08,1.48-4.66,2.39c-0.69,0.4-1.31,0.93-1.96,1.4c-0.36-0.87-0.99-1.73-1.03-2.62
			c-0.11-2.21-0.02-4.3-2.94-1.76c-0.11,0.09-1.15-0.47-1.15-0.74c-0.05-2.14-2.32-4.48,0.82-6.44c0.8-0.5,1.01-1.86-1.46-2.49
			c-2.06-0.52-3.94-4.08-4.76-6.65c-1.09-3.42-1-7.21-1.55-10.82c-0.64-4.24,0.9-6.98,5.11-8.13c0.44-0.12,0.8-0.51,1.2-0.77
			c-4.29-3.19-0.29-6.69-0.29-10.02c-0.01-2.76,1.89-5.56-3.71-5.03c-3.33,0.31-6.9-2.84-10.51-3.91c-1.37-0.41-3.29,0.4-4.75,1.09
			c-2.62,1.23-4.93,3.32-7.64,4.11c-4.87,1.42-3.8,4.89-3.08,7.95c0.95,4.02,1.76,7.4-4.02,8.03c-0.83,0.09-1.88,1.91-2.11,3.07
			c-0.46,2.26,0.07,4.82-0.74,6.89c-0.79,2.04-2.73,3.63-4.17,5.42c-1.32-1.81-3.53-3.5-3.8-5.45c-0.64-4.75-0.27-9.63-0.59-14.43
			c-0.07-1.03-1.18-2.64-2.1-2.87c-6.83-1.73-9.58-9.95-4.59-15.08c2.02-2.07,1.54-2.36-0.66-3.06c-0.92-0.29-2.44-1.12-2.4-1.58
			c0.28-2.74-0.76-3.67-3.37-3.16c-0.31,0.06-0.93-0.05-0.94-0.15c-0.91-6.69-10.82-5.73-11.36-13.18
			c-0.05-0.69-5.68-1.28-8.72-1.25c-0.95,0.01-1.96,2.13-2.8,3.38c-1.39,2.09-2.76,4.21-3.94,6.43c-1.21,2.29-1.64,5.27-5.42,4.59
			c-0.57-0.1-1.34,0.78-2,1.24c-3.03,2.13-5.17,1.09-5.85-2.19c-0.6-2.87-1.06-6.08-0.28-8.76c0.35-1.19,4.32-2.53,5.94-1.92
			c4.44,1.67,1.76-2.37,2.95-3.1c-0.66-0.77-1.31-2.18-1.98-2.19c-3.96-0.07-7.73,0-10.06-4.26c-0.36-0.66-2.99-0.21-4.54-0.02
			c-0.91,0.11-1.75,0.74-2.63,1.13c0.42-1.6,0.83-3.2,1.25-4.79c0.12-0.46,0.51-0.99,0.37-1.34c-1.34-3.54-2.77-7.05-4.14-10.58
			c-0.17-0.45,0.02-1.08-0.22-1.46c-4.1-6.51-4.11-6.5,2.03-12.09c-3.86,1.9-7.54-1.24-10.44,2.79c-0.72,1-5.26-0.27-7.74-1.27
			c-0.79-0.32-1.39-3.83-0.67-4.66c1.64-1.9,4.09-3.15,6.35-4.44c0.81-0.46,2-0.25,3.02-0.35c-0.36-1.52-0.36-4.12-1.14-4.39
			c-3.39-1.14-2.32-3.96-3.02-6.14c-0.47-1.46-1.22-2.88-2.1-4.14c-0.35-0.51-1.38-0.54-2.1-0.8c0.05,0.61,0.11,1.21,0.15,1.82
			c0.04,0.71,0.05,1.43,0.07,2.14c-0.74-0.23-1.55-0.34-2.21-0.7c-4.52-2.51-5.1,3.88-8.55,3.75c0.61,1.28,1.29,2.53,1.8,3.85
			c0.44,1.14,0.7,2.36,1.03,3.55c-1.04-0.21-2.13-0.73-3.1-0.56c-1.88,0.33-4.71,0.54-5.29,1.72c-0.87,1.75-1.5,4.54,1.69,6.03
			c1.38,0.64,2.16,2.56,3.21,3.89c-1.85-0.12-3.93,0.25-5.49-0.49c-2.39-1.13-4.03-2.15-4.13,1.72c-0.07,2.52-0.95,2.8-3.06,1.27
			c-1.24-0.9-3.14-0.85-4.69-1.39c-0.72-0.25-1.3-0.91-1.95-1.38c2.58-2.93,0.75-5.85,0.07-8.79c-0.02-0.08,1.02-0.4,1.56-0.61
			c0.44-0.17,1.23-0.25,1.28-0.5c1.46-6.57,7.97-7.68,12.09-11.35c1.85-1.64,0.38-6.63-1.96-8.02c-2.51-1.48-2.88-3.07-1.35-6.05
			c1.88-3.67,2.62-7.98,3.5-12.09c0.15-0.68-1.48-2.45-2.34-2.48c-1.43-0.06-2.92,0.83-4.36,1.41c-1.69,0.68-3.42,1.31-4.99,2.21
			c-1.24,0.7-2.14,2.04-3.41,2.62c-2.66,1.22-6.05,3.58-8.07,2.78c-2.32-0.92-4.19-4.57-4.94-7.38c-0.82-3.1,0.81-7.31-4.96-6.42
			c-0.06,0.01-0.3-0.98-0.41-1.51c-0.65-2.9-1.37-5.78-1.89-8.7c-0.17-0.97,0-2.1,0.35-3.03c0.27-0.71,1.05-1.23,1.61-1.83
			c-1.31-0.06-3.38-0.68-3.82-0.09c-2.71,3.67-3.5,1.75-4.62-1.11c-1.69-4.33-5.82-4.76-8.98-1.34c-0.88,0.95-2.49,1.42-3.84,1.63
			c-0.47,0.07-1.76-1.43-1.65-2c0.48-2.4,0.94-4.96,2.16-7.01c3.32-5.58,10.02-4.47,14.91-7.02c0.11-0.06,0-0.55-0.01-0.84
			c0,0-0.08,0.11-0.08,0.11c1.37-0.69,2.75-1.38,4.12-2.07l-0.11,0.09c1.31-0.58,2.81-0.91,3.88-1.77
			c3.54-2.86,7.19-5.67,10.24-9.01c1.26-1.38,2.73-3.28-1.14-5.72c-3.39-2.14-4.85,2.71-6.94,0.12
			C148.55,432.09,148.45,431.61,148.35,431.13z M252.52,452c1.03,0.33,2.05,0.66,3.08,1c-0.97,0.7-1.94,1.4-2.91,2.1
			c1.66,0.9,3.31,1.83,5.04,2.58c0.08,0.03,0.83-1.61,1.35-2.41c0.32-0.49,0.88-1.25,1.22-1.19c0.57,0.1,1.02,0.79,1.57,1.15
			c0.9,0.6,1.84,1.14,2.76,1.71c0.49,0.02,1.02-0.08,1.47,0.07c0.73,0.24,1.4,0.64,2.09,0.98c-0.53-0.67-0.94-1.5-1.62-1.96
			c-0.47-0.32-1.28-0.12-1.94-0.15c-0.24-5.1-4.62-5.46-8-6.95c-0.56-0.61-1.13-1.23-1.69-1.84c-0.44,0.91-0.89,1.82-1.33,2.74
			c-0.86,0.25-1.72,0.5-2.58,0.75C251.53,451.05,252.02,451.53,252.52,452z M401.68,450.44c0.93,2.2-5.97,5.54,1,6.86
			c0.63,0.5,1.26,0.99,1.89,1.49c0.36-0.95,0.72-1.91,1.08-2.86c-0.33-1.63-0.65-3.26-0.98-4.89c0-0.64,0-1.28,0-1.92
			c0.37-1.44,0.73-2.87,1.1-4.31c-0.19-0.03-0.37-0.05-0.56-0.08c-0.52,1.07-1.04,2.14-1.56,3.21
			C402.99,448.77,402.33,449.6,401.68,450.44z M228.05,420.99c0.91,6.25,6.27,8.71,11.02,4.62c2.4-2.06,3.37-5.72,5.65-8
			c2.3-2.31,5.42-3.82,8.17-5.68c0.1,2.19,0.23,4.38,0.3,6.58c0.02,0.66-0.22,1.34-0.14,1.99c0.78,6.07,0.9,12.34,2.6,18.14
			c1.88,6.43,7.33,6.96,10.97,1.36c2.7-4.16,4.65-8.81,6.88-13.27c2.01-4.01,3.88-8.09,5.96-12.05c0.66-1.26,1.82-2.26,2.75-3.38
			c0.39,1.22,0.77,2.44,1.16,3.65c2.16,6.62,7.39,8.59,12.01,4c2.74-2.72,3.62-2.61,5.87,0.45c2.25,3.07,6.08,2.76,9.04,0.77
			c2.56-1.72,5.11-3.94,6.71-6.53c2.42-3.93,3.99-4.81,7.81-1.19c2.76,2.61,1.4,3.5-0.14,5.4c-4.18,5.17-4.02,9.59,0.23,11.9
			c3.57,1.95,9.61,1.09,11.96-2.04c2.76-3.68,3.25-7.74-0.01-11.37c-1.72-1.91-1.56-2.96,0.47-4.2c1.28-0.78,2.46-1.71,3.68-2.58
			c2.48-1.77,2.94-0.85,2.83,1.82c-0.21,4.99-0.24,9.99-0.08,14.98c0.09,2.77,1,5.94,4.41,5.32c1.73-0.32,3.47-2.9,4.39-4.84
			c1.56-3.28,2.39-6.89,3.7-10.3c0.35-0.92,1.31-1.61,1.99-2.4c0.19,1.09,0.65,2.2,0.53,3.25c-0.4,3.47-1.08,6.9-1.51,10.37
			c-0.48,3.86-0.97,8.76,3.35,9.81c2.66,0.65,6.58-1.99,9.29-4.02c2.29-1.72,3.98-4.51,5.35-7.13c3.31-6.33,6.41-12.79,9.27-19.33
			c0.61-1.4-0.14-3.4-0.27-5.13c-1.3,1.2-3.02,2.18-3.84,3.65c-4.27,7.7-8.27,15.54-12.48,23.27c-0.45,0.83-1.64,1.26-2.49,1.87
			c-0.01-0.96-0.2-1.96,0-2.87c1.69-7.81,3.78-15.55,5-23.42c0.44-2.85-0.22-7.62-2.04-8.7c-3.74-2.2-6.72,1.35-8.87,4.38
			c-1.62,2.29-2.79,4.9-4.14,7.38c-0.75,1.39-1.46,2.8-2.19,4.2c0.15-8.13,0.28-15.83,8.6-20.83c6.41-3.85,11.57-9.61,13.87-17.15
			c1.24-4.05,3.49-8.88-1.19-11.8c-4.57-2.86-8.76,0.5-11.16,3.93c-5.3,7.57-11.05,15.23-14.26,23.74
			c-3.04,8.06-5.94,15.02-14.21,18.76c-2.31,1.04-3.98,3.75-6.31,0.13c-2-3.11-3.06-6.14,0.39-8.77c0.83-0.63,2.51-0.34,3.77-0.19
			c1.41,0.17,2.79,0.67,4.18,1.03c-0.33-1.49-0.2-3.85-1.07-4.31c-2.6-1.38-5.63-2.85-8.44-2.76c-4.51,0.14-7.05,3.27-8.88,7.56
			c-1.9,4.46-4.93,8.45-7.65,12.52c-0.52,0.77-1.94,0.94-2.94,1.38c-0.26-1.03-0.89-2.13-0.72-3.09c0.72-4.09,1.96-8.11,2.44-12.22
			c0.23-2.01-0.14-5.28-1.38-5.99c-1.68-0.96-4.46-0.08-6.75,0.14c-1.17,0.11-2.33,0.46-3.47,0.79c-3.23,0.94-7.51,0.95-9.46,3.08
			c-6.11,6.69-11.65,13.97-16.8,21.45c-2.69,3.91-4.09,8.71-6.13,13.08c-0.4,0.85-1.12,1.55-1.69,2.33
			c-0.44-0.96-1.31-1.96-1.24-2.89c0.78-10.74,1.48-21.5,2.77-32.18c0.29-2.4,2.61-4.71,4.34-6.77
			c4.88-5.81,10.63-11.01,14.72-17.31c3.87-5.96,2.95-12.5-0.24-14.17c-3.65-1.91-8.42,0.32-12.87,6.28
			c-7.37,9.85-12.09,20.95-15.73,32.66c-0.92,2.97-3.73,5.48-6.04,7.84c-1.64,1.67-2.7,1.23-2.67-1.52
			c0.03-2.94-0.17-6.04-1.09-8.79c-2.19-6.56-8.19-7.76-12.69-2.54c-2.14,2.48-3.52,5.6-5.3,8.4c-0.31,0.48-0.89,0.79-1.35,1.18
			c-0.29-0.5-0.79-0.98-0.84-1.5c-0.44-4.77-3.55-4.96-6.79-3.47c-4.35,2.01-8.44,4.58-12.6,6.99c-1.94,1.12-3.44,4.17-5.99,0.56
			c-2.52-3.56-2.77-7.3,0.16-9.25c0.9-0.6,2.53-0.31,3.79-0.13c1.37,0.19,2.69,0.71,4.03,1.09c-0.3-1.52-0.2-3.33-1.02-4.47
			c-0.88-1.22-2.54-2.19-4.04-2.6c-4.78-1.29-9.85,0.93-12.04,4.93c-2.39,4.37-2.04,8.42,2.64,11.89c4.56,3.37,4.5,5.59,0.94,9.7
			c-3.2,3.69-1.81,8.64,2.19,9.96c4.12,1.35,8.44,1.34,11.46-2.42c2.93-3.65,3.14-7.81-0.15-11.36c-1.85-2-1.36-2.92,0.55-4.09
			c1.13-0.69,2.13-1.61,3.27-2.28c0.98-0.58,2.08-0.95,3.12-1.42c-0.07,1.09-0.14,2.18-0.22,3.27c-1.26,16.57-2.64,33.13-3.58,49.71
			c-0.09,1.66,2.52,3.47,3.88,5.21c1.12-1.69,2.86-3.24,3.27-5.08c2.9-12.98,5.52-26.02,8.24-39.03
			C227.23,420.93,227.64,420.96,228.05,420.99z"/>
		<path class="st0" d="M148.35,431.13c0.1,0.48,0.2,0.97,0.3,1.45c-1,1.8-2,3.6-3.01,5.4c-3.75-2.79-2.66,1.12-2.79,2.28
			c-0.33,2.87-0.19,5.8-0.24,8.71c0,0,0.11-0.09,0.11-0.09c-1.37,0.69-2.75,1.38-4.12,2.07c0,0,0.08-0.11,0.08-0.11
			c-3.72-1.35-4.66-4.02-4.15-7.77c0.22-1.62,0.01-3.87-0.98-5c-3.75-4.29-3.59-6.7,1.25-9.47c0.55-0.31,1.22-0.47,1.68-0.87
			C142.18,422.8,144.77,428.68,148.35,431.13z"/>
		<path class="st0" d="M427.62,240.88c0.02-0.33-0.09-0.74,0.07-0.98c1.2-1.84,2.45-3.64,3.68-5.46c1.14,1.53,2.62,2.92,3.33,4.63
			c0.98,2.36,1.52,4.94,1.97,7.48c0.21,1.18,0.08,3.31-0.49,3.54c-1.18,0.48-3.43,0.52-4.04-0.23c-2.09-2.58-3.65-5.57-5.41-8.41
			C427.01,241.25,427.31,241.07,427.62,240.88z"/>
		<path class="st0" d="M315.66,207.87c-0.24-0.14-0.49-0.27-0.73-0.41c0.21-0.07,0.42-0.15,0.62-0.22c0,0.24-0.01,0.48-0.01,0.72
			C315.54,207.95,315.66,207.87,315.66,207.87z"/>
		<path class="st0" d="M142.61,448.97c0.05-2.91-0.09-5.83,0.24-8.71c0.13-1.16-0.96-5.07,2.79-2.28c1-1.8,2-3.6,3.01-5.4
			c2.09,2.59,3.56-2.26,6.94-0.12c3.87,2.44,2.39,4.35,1.14,5.72c-3.05,3.34-6.7,6.15-10.24,9.01
			C145.42,448.06,143.91,448.39,142.61,448.97z"/>
		<path class="st0" d="M226.82,420.91c2.53-6.99,4.97-14.01,7.68-20.92c0.46-1.17,2.06-1.89,3.14-2.82c0.66,1.38,1.69,2.71,1.9,4.15
			c0.31,2.11-0.01,4.31,0,6.47c0.02,3.67-1.26,5.99-5.07,7.46c-2.51,0.97-4.31,3.77-6.43,5.74
			C227.64,420.96,227.23,420.93,226.82,420.91z"/>
		<path class="st0" d="M256.64,448.93c3.38,1.49,7.75,1.85,8,6.95c0,0.35,0,0.71-0.01,1.06c-0.92-0.57-1.86-1.11-2.76-1.71
			c-0.55-0.37-1-1.05-1.57-1.15c-0.33-0.06-0.9,0.71-1.22,1.19c-0.53,0.8-1.27,2.44-1.35,2.41c-1.73-0.75-3.38-1.68-5.04-2.58
			c0.97-0.7,1.94-1.4,2.91-2.1c0.34-1.06,0.68-2.11,1.02-3.17C256.63,449.53,256.64,449.23,256.64,448.93z"/>
		<path class="st0" d="M404.67,449.1c0,0.64,0,1.28,0,1.92c0.33,1.63,0.65,3.26,0.98,4.89c-0.36,0.95-0.72,1.91-1.08,2.86
			c-0.63-0.5-1.26-0.99-1.89-1.49c-0.33-2.29-0.67-4.57-1-6.86c0.66-0.83,1.32-1.67,1.97-2.5
			C403.99,448.32,404.33,448.71,404.67,449.1z"/>
		<path class="st0" d="M256.64,448.93c0,0.3,0,0.6-0.02,0.91c-0.05,3.23-1.47,2.47-3.12,1.08c0.04-0.36,0.08-0.73,0.12-1.09
			c0.44-0.91,0.89-1.82,1.33-2.74C255.51,447.7,256.07,448.31,256.64,448.93z"/>
		<path class="st0" d="M401.68,450.44c0.33,2.29,0.67,4.57,1,6.86C395.71,455.98,402.61,452.64,401.68,450.44z"/>
		<path class="st0" d="M253.5,450.92c1.65,1.39,3.08,2.14,3.12-1.08c-0.34,1.06-0.68,2.11-1.02,3.17c-1.03-0.33-2.05-0.66-3.08-1
			C252.84,451.64,253.17,451.28,253.5,450.92z"/>
		<path class="st0" d="M264.63,456.94c0-0.35,0-0.71,0.01-1.06c0.66,0.03,1.48-0.17,1.94,0.15c0.67,0.46,1.09,1.29,1.62,1.96
			c-0.69-0.33-1.37-0.74-2.09-0.98C265.65,456.86,265.12,456.96,264.63,456.94z"/>
		<path class="st0" d="M404.67,449.1c-0.34-0.39-0.68-0.78-1.02-1.17c0.52-1.07,1.04-2.14,1.56-3.21c0.19,0.03,0.37,0.05,0.56,0.08
			C405.41,446.23,405.04,447.67,404.67,449.1z"/>
		<path class="st0" d="M253.5,450.92c-0.33,0.36-0.65,0.72-0.98,1.09c-0.49-0.47-0.99-0.95-1.48-1.42c0.86-0.25,1.72-0.5,2.58-0.75
			C253.58,450.19,253.54,450.55,253.5,450.92z"/>
		<path class="st0" d="M405.65,455.92c-0.33-1.63-0.65-3.26-0.98-4.89C405,452.66,405.32,454.29,405.65,455.92z"/>
		<path class="st0" d="M289.43,409.51c1.81-2.87,3.72-6.18,5.95-9.24c0.46-0.62,2.3-0.71,3.21-0.34c0.49,0.2,0.69,2.01,0.43,2.93
			c-0.87,3.15-1.72,6.37-3.17,9.27c-0.67,1.33-2.73,1.95-4.16,2.9C291.09,413.58,290.5,412.13,289.43,409.51z"/>
		<path class="st0" d="M271.24,385.1c-0.13-0.64-0.55-1.39-0.33-1.77c2.9-5,5.86-9.97,8.92-14.88c0.36-0.58,1.36-0.77,2.06-1.14
			c0.2,0.72,0.68,1.49,0.57,2.15c-1.08,6.45-5.32,10.89-9.84,15.13C272.4,384.8,272.01,384.83,271.24,385.1z"/>
		<path class="st0" d="M371.9,369.36c-0.05,4.23-6.75,14.36-9.93,15.44c-0.56,0.19-1.39,0.18-1.85-0.11
			c-0.3-0.19-0.4-1.25-0.15-1.63c3.07-4.67,6.18-9.32,9.38-13.9c0.39-0.56,1.38-0.69,2.1-1.02
			C371.66,368.72,371.87,369.29,371.9,369.36z"/>
	</g>
</g>
<rect x="162.64" y="335.89" class="st0" width="264.06" height="138"/>
</svg>
